<?xml version="1.0" encoding="UTF-8" standalone="no"?>
<!-- Created with Inkscape (http://www.inkscape.org/) -->

<svg
   xmlns:dc="http://purl.org/dc/elements/1.1/"
   xmlns:cc="http://creativecommons.org/ns#"
   xmlns:rdf="http://www.w3.org/1999/02/22-rdf-syntax-ns#"
   xmlns:svg="http://www.w3.org/2000/svg"
   xmlns="http://www.w3.org/2000/svg"
   xmlns:sodipodi="http://sodipodi.sourceforge.net/DTD/sodipodi-0.dtd"
   xmlns:inkscape="http://www.inkscape.org/namespaces/inkscape"
   version="1.1"
   width="514.03503"
   height="453.56772"
   id="svg2"
   xml:space="preserve"
   inkscape:version="0.48.3.1 r9886"
   sodipodi:docname="logo-pug-mg.svg"
   style="enable-background:new"><sodipodi:namedview
     pagecolor="#ffffff"
     bordercolor="#666666"
     borderopacity="1"
     objecttolerance="10"
     gridtolerance="10"
     guidetolerance="10"
     inkscape:pageopacity="0"
     inkscape:pageshadow="2"
     inkscape:window-width="956"
     inkscape:window-height="666"
     id="namedview23"
     showgrid="false"
     fit-margin-top="10"
     fit-margin-left="10"
     fit-margin-right="10"
     fit-margin-bottom="10"
     inkscape:zoom="0.51584699"
     inkscape:cx="-11.508754"
     inkscape:cy="232.32232"
     inkscape:window-x="126"
     inkscape:window-y="130"
     inkscape:window-maximized="0"
     inkscape:current-layer="svg2"
     borderlayer="true"
     showborder="true"
     inkscape:showpageshadow="true" /><metadata
     id="metadata8"><rdf:RDF><cc:Work
         rdf:about=""><dc:format>image/svg+xml</dc:format><dc:type
           rdf:resource="http://purl.org/dc/dcmitype/StillImage" /><dc:title /></cc:Work></rdf:RDF></metadata><defs
     id="defs6"><filter
       id="filter3155"
       style="color-interpolation-filters:sRGB;"
       inkscape:label="Drop Shadow"><feFlood
         id="feFlood3157"
         flood-opacity="0.702"
         flood-color="rgb(0,0,0)"
         result="flood" /><feComposite
         id="feComposite3159"
         in2="SourceGraphic"
         in="flood"
         operator="in"
         result="composite1" /><feGaussianBlur
         id="feGaussianBlur3161"
         in="composite"
         stdDeviation="2"
         result="blur" /><feOffset
         id="feOffset3163"
         dx="4"
         dy="4"
         result="offset" /><feComposite
         id="feComposite3165"
         in2="offset"
         in="SourceGraphic"
         operator="over"
         result="composite2" /></filter><filter
       id="filter3167"
       style="color-interpolation-filters:sRGB;"
       inkscape:label="Drop Shadow"><feFlood
         id="feFlood3169"
         flood-opacity="0.702"
         flood-color="rgb(0,0,0)"
         result="flood" /><feComposite
         id="feComposite3171"
         in2="SourceGraphic"
         in="flood"
         operator="in"
         result="composite1" /><feGaussianBlur
         id="feGaussianBlur3173"
         in="composite"
         stdDeviation="2"
         result="blur" /><feOffset
         id="feOffset3175"
         dx="4"
         dy="4"
         result="offset" /><feComposite
         id="feComposite3177"
         in2="offset"
         in="SourceGraphic"
         operator="over"
         result="composite2" /></filter></defs><g
     transform="matrix(1.25,0,0,-1.25,-6.7947711,467.74969)"
     id="g10"><g
       transform="scale(0.1,0.1)"
       id="g12"><path
         d="m 2909.18,2550.06 -0.5,0.5 0,-1 0.5,0.5"
         inkscape:connector-curvature="0"
         id="path14"
         style="fill:#ffffff;fill-opacity:1;fill-rule:nonzero;stroke:none" /><path
         d="m 2909.18,2550.06 -0.5,-0.5 0.5,0.5"
         inkscape:connector-curvature="0"
         id="path16"
         style="fill:#f0f0f0;fill-opacity:1;fill-rule:nonzero;stroke:none" /><path
         d="m 2909.18,2550.06 -0.5,-0.5 -1.5,-400.33 C 2874.2,1956.3 2762.74,1845.35 2572.81,1815.86 l -816.67,0 c -165.43,-26.49 -256.4,-127.45 -272.39,-302.88 l 0,-704.218 c 15.49,-57.477 40.48,-108.457 74.97,-152.442 l 1226.51,0 c 16.99,27.492 28.99,58.977 36.48,94.965 l 0,349.355 -668.73,0 0,88.97 979.11,0 c 199.42,28.99 325.37,171.43 378.85,427.33 l 0,1 -601.76,932.12 z M 2622.79,899.227 c 24,-24.493 35.99,-53.981 36.49,-88.965 -0.5,-34.489 -12.49,-64.477 -36.49,-88.965 -24.99,-23.992 -54.97,-35.988 -89.96,-36.485 -34.49,0.497 -63.97,12.493 -87.96,36.485 -24.49,24.488 -36.99,54.476 -36.99,88.965 0,34.984 12.5,64.472 36.99,88.965 23.99,24.488 53.47,36.984 87.96,36.984 34.99,0 64.97,-12.496 89.96,-36.984"
         inkscape:connector-curvature="0"
         id="path18"
         style="fill:#eeeeee;fill-opacity:1;fill-rule:nonzero;stroke:none" /><path
         d="m 2659.28,810.262 c -0.5,34.984 -12.49,64.472 -36.49,88.965 -24.99,24.488 -54.97,36.984 -89.96,36.984 -34.49,0 -63.97,-12.496 -87.96,-36.984 -24.49,-24.493 -36.99,-53.981 -36.99,-88.965 0,-34.489 12.5,-64.477 36.99,-88.965 23.99,-23.992 53.47,-35.988 87.96,-36.485 34.99,0.497 64.97,12.493 89.96,36.485 24,24.488 35.99,54.476 36.49,88.965"
         inkscape:connector-curvature="0"
         id="path20"
         style="fill:#bf2e2b;fill-opacity:1;fill-rule:nonzero;stroke:none" /><path
         d="m 2907.18,2149.23 1.5,400.33 -119.45,185.43 30.48,-49.98 0,-470.31 c -17.49,-174.93 -108.45,-275.89 -273.39,-302.38 l -815.67,0 c -189.42,-28.49 -300.88,-139.44 -334.36,-333.37 l 0,-388.34 -292.39,0 c -184.423,55.48 -292.88,220.91 -325.369,495.8 L 185.27,814.258 l 0,0.5 C 172.273,795.266 159.281,775.773 146.785,756.281 117.297,690.809 140.289,657.32 215.758,655.82 l 32.988,0 c 6.496,0 13.492,0 20.988,0 2,0.5 4,0.5 6,0.5 l 1282.986,0 c -34.49,43.985 -59.48,94.965 -74.97,152.442 l 0,704.218 c 15.99,175.43 106.96,276.39 272.39,302.88 l 816.68,0 c 189.92,29.49 301.38,140.44 334.36,333.37"
         inkscape:connector-curvature="0"
         id="path22"
         style="fill:#bf2e2b;fill-opacity:1;fill-rule:nonzero;stroke:none" /><path
         d="m 3510.94,1616.94 c -53.48,-255.9 -179.43,-398.34 -378.85,-427.33 l -979.11,0 0,-88.97 668.73,0 0,-349.355 c -7.49,-35.988 -19.49,-67.473 -36.48,-94.965 l 1220.01,0 c 75.47,1.5 98.46,34.989 68.97,99.961 -31.48,48.481 -62.97,96.461 -94.46,144.442 -156.44,238.907 -312.37,477.807 -468.81,716.217"
         inkscape:connector-curvature="0"
         id="path24"
         style="fill:#bf2e2b;fill-opacity:1;fill-rule:nonzero;stroke:none" /><path
         d="m 2203.96,3637.63 c -33.48,32.49 -67.47,32.49 -100.96,0 l -277.39,-409.84 c 24.5,4.5 53.98,8 88.97,10 l 468.81,0 c 31.49,-2 60.48,-6 87.97,-11.5 l -267.4,411.34"
         inkscape:connector-curvature="0"
         id="path26"
         style="fill:#bf2e2b;fill-opacity:1;fill-rule:nonzero;stroke:none" /><path
         d="m 2474.36,3221.8 -0.5,1 -2.5,3.49 c -27.49,5.5 -56.48,9.5 -87.97,11.5 l -468.81,0 c -34.99,-2 -64.47,-5.5 -88.97,-10 l -343.86,-506.29 0,-94.46 668.73,0 0,-88.47 -793.68,0 -283.39,-414.34 c -13.49,-18.49 -24.48,-35.98 -33.98,-52.48 l -260.899,-384.34 0,-1 c 32.489,-274.89 140.946,-440.32 325.369,-495.8 l 292.39,0 0,388.34 c 33.48,193.93 144.94,304.88 334.36,333.37 l 815.67,0 c 164.94,26.49 255.9,127.45 273.39,302.38 l 0,470.31 -30.48,49.98 -314.87,486.81 z m -810.18,-235.41 c 4.5,7 9.5,13.49 15.99,19.49 24.49,24.49 54.48,36.99 89.47,37.49 34.48,-0.5 63.97,-13 87.96,-37.49 24.49,-24.49 36.99,-53.98 37.49,-88.96 -0.5,-34.99 -13,-64.97 -37.49,-89.47 -23.99,-24.49 -53.48,-35.98 -87.96,-35.48 -34.99,-0.5 -64.98,10.99 -89.47,35.48 -24.49,24.5 -36.48,54.48 -35.98,89.47 0,26.49 6.49,49.48 19.99,69.47"
         inkscape:connector-curvature="0"
         id="path28"
         style="fill:#eeeeee;fill-opacity:1;fill-rule:nonzero;stroke:none" /><path
         d="m 1680.17,3005.88 c -6.49,-6 -11.49,-12.49 -15.99,-19.49 -13.5,-19.99 -19.99,-42.98 -19.99,-69.47 -0.5,-34.99 11.49,-64.97 35.98,-89.47 24.49,-24.49 54.48,-35.98 89.47,-35.48 34.48,-0.5 63.97,10.99 87.96,35.48 24.49,24.5 36.99,54.48 37.49,89.47 -0.5,34.98 -13,64.47 -37.49,88.96 -23.99,24.49 -53.48,36.99 -87.96,37.49 -34.99,-0.5 -64.98,-13 -89.47,-37.49"
         inkscape:connector-curvature="0"
         id="path30"
         style="fill:#bf2e2b;fill-opacity:1;fill-rule:nonzero;stroke:none" /><path
         d="m 1481.75,2721.5 -124.95,-182.93 793.68,0 0,88.47 -668.73,0 0,94.46"
         inkscape:connector-curvature="0"
         id="path32"
         style="fill:#bf2e2b;fill-opacity:1;fill-rule:nonzero;stroke:none" /><g
         transform="scale(10,10)"
         id="g34"><text
   transform="scale(1,-1)"
   id="text36"
   x="-42.24424"
   y="-21.604143"
   style="filter:url(#filter3155)"><tspan
     x="101.34834"
     id="tspan38"
     style="font-size:49.97999954px;font-variant:normal;font-weight:normal;writing-mode:lr-tb;fill:#0c0a0b;fill-opacity:1;fill-rule:nonzero;stroke:none;font-family:MyriadRegularItalic;-inkscape-font-specification:MyriadRegularItalic">PUG- </tspan></text>


</g><g
         transform="scale(10,10)"
         id="g40"><text
   transform="scale(1,-1)"
   id="text42"
   x="96.537102"
   y="-20.053295"
   style="filter:url(#filter3167)"><tspan
     x="228.08438"
     id="tspan44"
     style="font-size:49.97999954px;font-variant:normal;font-weight:normal;writing-mode:lr-tb;fill:#b52c28;fill-opacity:1;fill-rule:nonzero;stroke:none;font-family:MyriadRegularItalic;-inkscape-font-specification:MyriadRegularItalic">MG</tspan></text>


</g></g></g></svg>